<?xml version="1.0" standalone="no"?><!DOCTYPE svg PUBLIC "-//W3C//DTD SVG 1.1//EN" "http://www.w3.org/Graphics/SVG/1.1/DTD/svg11.dtd"><svg t="1619594701875" class="icon" viewBox="0 0 1024 1024" version="1.1" xmlns="http://www.w3.org/2000/svg" p-id="5370" xmlns:xlink="http://www.w3.org/1999/xlink" width="200" height="200"><defs><style type="text/css"></style></defs><path d="M681.821659 488.73522l-91.235903-20.817171c-4.89522-1.223805-9.790439-0.199805-14.286049 2.659902-4.083512 2.659902-6.94322 6.930732-8.167024 11.838439-1.623415 9.390829 4.907707 19.393561 14.897951 21.841171l91.235903 20.817171c6.331317 1.42361 13.274537-0.824195 17.757658-5.719415 4.283317-4.89522 5.706927-11.838439 3.671415-18.169756-2.035512-6.331317-7.143024-11.026732-13.873951-12.450341zM455.867317 482.204098c-0.811707-4.907707-3.671415-9.178537-8.167024-11.838439-4.083512-2.659902-9.178537-3.47161-14.286049-2.659903l-91.235903 20.817171c-10.215024 2.035512-16.533854 12.238049-14.286048 22.040975 2.035512 10.202537 12.238049 16.533854 22.040975 14.286049l91.648-20.617366c9.802927-2.235317 16.533854-12.238049 14.286049-22.028487zM579.159415 592.821073c-4.283317-1.835707-8.978732-0.811707-12.450342 2.247805l-23.26478 17.345561-16.733659-20.617366c-3.671415-4.695415-9.590634-7.555122-15.722146-7.555122-6.119024 0-11.838439 2.659902-15.709659 7.143025l-17.145756 20.205268-20.005463-16.533854c-3.259317-2.859707-7.754927-3.671415-11.838439-2.247805-4.083512 1.436098-6.930732 4.89522-7.555122 9.191025-0.611902 4.283317 1.223805 8.778927 4.283317 11.226536l22.652878 18.781659c8.778927 6.94322 21.229268 5.719415 28.372293-2.659903l16.533853-19.593365 16.121756 20.005463c4.083512 5.107512 10.002732 7.96722 15.921952 7.96722 4.283317 0 8.778927-1.42361 12.250536-4.083513l26.124488-19.393561c4.083512-2.247805 6.131512-6.730927 5.719415-11.226536-0.212293-4.682927-3.271805-8.354341-7.555122-10.202537z" fill="#CCCCCC" p-id="5371"></path><path d="M512 0.499512C229.513366 0.499512 0.499512 229.513366 0.499512 512 0.499512 794.486634 229.513366 1023.500488 512 1023.500488c282.486634 0 511.500488-229.013854 511.500488-511.500488C1023.500488 229.513366 794.486634 0.499512 512 0.499512z m273.92 651.114147c0 47.765854-42.246244 86.952585-94.49522 86.952585h-14.286048v7.143024c0 7.754927-2.859707 15.110244-8.36683 20.617366-5.507122 5.507122-12.662634 8.366829-20.617365 8.366829-7.754927 0-15.110244-2.859707-20.617366-8.366829-5.507122-5.507122-8.366829-12.662634-8.36683-20.617366v-7.555122H404.642341v7.143025c0 7.754927-2.859707 15.097756-8.366829 20.617366-5.507122 5.507122-12.650146 8.366829-20.617366 8.366829-7.754927 0-15.110244-3.259317-20.617366-8.366829-5.507122-5.307317-8.366829-12.650146-8.366829-20.617366v-7.143025h-14.286049c-52.049171 0-94.507707-38.774634-94.507707-86.952585V422.4c0-47.765854 42.246244-86.952585 94.507707-86.952585h103.686244l-55.52078-49.601561c-10.202537-8.978732-10.814439-18.569366-1.835707-28.572098 8.978732-10.202537 18.581854-10.614634 28.572097-1.835707l89.400195 80.009366h30.420293l89.400195-80.009366c10.202537-8.978732 19.593366-8.366829 28.572098 1.835707 8.978732 10.202537 8.366829 19.593366-1.835708 28.572098l-55.52078 49.801366h104.298146c26.73639 0 52.049171 10.414829 69.806829 28.372292 15.722146 15.310049 24.28878 36.539317 24.076488 58.580293V651.613659z" fill="#CCCCCC" p-id="5372"></path></svg>