<?xml version="1.0" standalone="no"?><!DOCTYPE svg PUBLIC "-//W3C//DTD SVG 1.1//EN" "http://www.w3.org/Graphics/SVG/1.1/DTD/svg11.dtd"><svg t="1619594631024" class="icon" viewBox="0 0 1024 1024" version="1.1" xmlns="http://www.w3.org/2000/svg" p-id="4690" xmlns:xlink="http://www.w3.org/1999/xlink" width="200" height="200"><defs><style type="text/css"></style></defs><path d="M510.976694 62.34493c-248.313435 0-449.610044 201.298656-449.610044 449.610044 0 248.313435 201.296609 449.610044 449.610044 449.610044 248.311389 0 449.610044-201.296609 449.610044-449.610044C960.586738 263.642562 759.288083 62.34493 510.976694 62.34493zM754.545058 664.208611c-18.134009 15.359826-41.679261-50.581002-45.074591-40.440038-8.248871 24.671912-12.098549 41.163515-36.406165 68.027349-1.298576 1.435699 28.096918 11.927657 36.406165 34.331923 7.967462 21.459754 23.482831 55.464219-77.986165 66.13014-59.553351 6.263657-102.573143-31.353079-106.862843-30.981618-7.943926 0.687662-4.403287 0-12.95301 0-6.987135 0-7.442506 0.49528-14.033621 0-1.802042-0.135076-21.587668 30.981618-110.10263 30.981618-68.608587 0-86.35681-42.664705-72.560596-66.13014 13.798261-23.468504 36.809347-30.303166 33.56342-34.018791-15.97688-18.294668-26.998911-37.861306-33.56342-55.538921-1.633197-4.400217-2.991124-8.682753-4.077875-12.800537-2.498914-9.434883-21.591761 55.422264-42.09984 40.440038-20.510126-14.985296-18.682501-53.111638-5.396917-89.601714 13.389962-36.788881 47.13246-72.207555 47.496757-80.033801 1.344624-29.092595-2.89391-33.929764 0-41.568744 6.474458-17.116843 14.358009-10.55438 14.358009-19.434631 0-111.906719 84.146469-202.620767 187.955766-202.620767 103.804181 0 187.953719 90.714048 187.953719 202.620767 0 4.2897 11.283997 0 16.678868 19.434631 1.116427 4.012384 1.883907 19.506263 0.561795 41.568744-0.63445 10.603499 28.584012 23.496134 43.697221 80.033801C777.211291 631.139447 762.098082 657.806807 754.545058 664.208611z" p-id="4691" fill="#cdcdcd"></path></svg>