<?xml version="1.0" standalone="no"?><!DOCTYPE svg PUBLIC "-//W3C//DTD SVG 1.1//EN" "http://www.w3.org/Graphics/SVG/1.1/DTD/svg11.dtd"><svg class="icon" width="200px" height="176.55px" viewBox="0 0 1160 1024" version="1.1" xmlns="http://www.w3.org/2000/svg"><path fill="#ffffff" d="M1160.651435 391.850667a39.867733 39.867733 0 0 0-21.367467-35.293867L598.816768 73.3184a39.594667 39.594667 0 0 0-36.864 0L21.485568 356.625067a39.7312 39.7312 0 0 0 0 70.4512l183.569067 96.0512a37.546667 37.546667 0 0 0-3.2768 15.291733v291.157333c0 10.6496 4.437333 20.138667 11.264 26.487467 3.4816 4.232533 7.645867 8.3968 12.6976 12.561067 54.408533 44.6464 221.5936 96.597333 344.746666 96.597333 3.2768 0 6.5536 0 9.6256-0.136533 102.1952-2.321067 330.1376-52.8384 370.210134-117.9648a36.864 36.864 0 0 0 7.9872-23.074134V531.729067a35.771733 35.771733 0 0 0-1.160534-9.216l136.3968-71.406934v350.890667a33.109333 33.109333 0 1 0 66.3552 0V398.9504A32.426667 32.426667 0 0 0 1160.651435 391.850667z m-266.24 435.950933v0.273067c-25.941333 24.302933-195.652267 68.334933-316.347734 71.202133-114.688 2.730667-282.487467-45.192533-311.978666-70.0416V555.144533l295.936 154.965334a39.936 39.936 0 0 0 36.864 0l295.3216-154.692267v268.765867c0 1.297067 0 2.4576 0.136533 3.618133zM580.384768 645.393067L95.964501 391.850667 580.384768 137.898667l484.693333 254.020266-484.693333 253.474134z"  /></svg>