<?xml version="1.0" standalone="no"?><!DOCTYPE svg PUBLIC "-//W3C//DTD SVG 1.1//EN" "http://www.w3.org/Graphics/SVG/1.1/DTD/svg11.dtd"><svg class="icon" width="200px" height="200.00px" viewBox="0 0 1024 1024" version="1.1" xmlns="http://www.w3.org/2000/svg"><path fill="#ffffff" d="M126.494118 707.764706v60.235294c0 18.070588 15.058824 33.129412 33.129411 33.129412h394.541177c18.070588 0 33.129412-15.058824 33.129412-33.129412v-60.235294c0-12.047059-6.023529-24.094118-18.070589-30.117647l-117.458823-60.235294 30.117647-45.176471c3.011765-6.023529 6.023529-12.047059 6.023529-18.070588v-93.364706c0-69.270588-54.211765-123.482353-126.494117-123.482353-72.282353 0-126.494118 54.211765-126.494118 123.482353v93.364706c0 6.023529 3.011765 12.047059 6.023529 18.070588l30.117648 45.176471-123.482353 60.235294c-12.047059 6.023529-21.082353 18.070588-21.082353 30.117647z m66.258823 18.070588l138.541177-66.258823c9.035294-3.011765 15.058824-12.047059 18.070588-21.082353 3.011765-9.035294 0-18.070588-6.02353-27.105883l-48.188235-66.258823v-84.329412c0-33.129412 27.105882-60.235294 63.247059-60.235294s63.247059 27.105882 63.247059 60.235294v84.329412l-45.176471 66.258823c-6.023529 9.035294-6.023529 18.070588-6.023529 27.105883 3.011765 9.035294 9.035294 15.058824 18.070588 21.082353l132.517647 66.258823v9.035294H192.752941v-9.035294z m508.988235-301.17647c-18.070588 0-33.129412 15.058824-33.129411 33.129411s15.058824 33.129412 33.129411 33.129412h174.682353c18.070588 0 33.129412-15.058824 33.129412-33.129412s-15.058824-33.129412-33.129412-33.129411h-174.682353z m0 138.541176c-18.070588 0-33.129412 15.058824-33.129411 33.129412s15.058824 33.129412 33.129411 33.129412h174.682353c18.070588 0 33.129412-15.058824 33.129412-33.129412 0-18.070588-15.058824-33.129412-33.129412-33.129412h-174.682353z m-60.235294 138.541176c-18.070588 0-33.129412 15.058824-33.129411 33.129412s15.058824 33.129412 33.129411 33.129412h234.917647c18.070588 0 33.129412-15.058824 33.129412-33.129412s-15.058824-33.129412-33.129412-33.129412h-234.917647zM957.741176 168.658824h-331.294117V84.329412c0-15.058824-12.047059-27.105882-27.105883-27.105883h-174.682352c-15.058824 0-27.105882 12.047059-27.105883 27.105883v84.329412h-331.294117C30.117647 168.658824 0 198.776471 0 234.917647v665.6c0 36.141176 30.117647 66.258824 66.258824 66.258824h891.482352c36.141176 0 66.258824-30.117647 66.258824-66.258824V234.917647c0-36.141176-30.117647-66.258824-66.258824-66.258823zM463.811765 123.482353h96.37647v96.376471c0 27.105882-21.082353 48.188235-48.188235 48.188235-27.105882 0-48.188235-21.082353-48.188235-48.188235V123.482353z m496.941176 743.905882c0 18.070588-15.058824 33.129412-33.129412 33.129412H96.376471c-18.070588 0-33.129412-15.058824-33.129412-33.129412v-602.352941c0-18.070588 15.058824-33.129412 33.129412-33.129412h304.188235c6.023529 57.223529 54.211765 99.388235 111.435294 99.388236 57.223529 0 105.411765-42.164706 111.435294-99.388236h304.188235c18.070588 0 33.129412 15.058824 33.129412 33.129412v602.352941z" /></svg>